<svg width="24" height="24" viewBox="0 0 24 24" fill="none" xmlns="http://www.w3.org/2000/svg">
<path fill-rule="evenodd" clip-rule="evenodd" d="M5.13332 10.8554C4.50125 10.8554 3.98887 11.3678 3.98887 11.9999C3.98887 12.6319 4.50126 13.1443 5.13332 13.1443L10.8554 13.1443L10.8554 18.8667C10.8554 19.4987 11.3678 20.0111 11.9999 20.0111C12.632 20.0111 13.1444 19.4987 13.1444 18.8667L13.1443 13.1443L18.8667 13.1443C19.4988 13.1443 20.0112 12.632 20.0112 11.9999C20.0112 11.3678 19.4988 10.8554 18.8667 10.8554L13.1443 10.8554L13.1443 5.13326C13.1443 4.50119 12.632 3.98881 11.9999 3.9888C11.3678 3.9888 10.8554 4.50119 10.8554 5.13326L10.8554 10.8554L5.13332 10.8554Z" fill="#01A7FD"/>
</svg>
